<svg width="420" height="96" viewBox="0 0 420 96" fill="none" xmlns="http://www.w3.org/2000/svg">
  <defs>
    <linearGradient id="hexGradLight" x1="12" y1="10" x2="84" y2="84" gradientUnits="userSpaceOnUse">
      <stop offset="0" stop-color="#FFD54A"/>
      <stop offset="0.45" stop-color="#FF9A1A"/>
      <stop offset="1" stop-color="#E64500"/>
    </linearGradient>
    <linearGradient id="sparkGradLight" x1="44" y1="24" x2="44" y2="72" gradientUnits="userSpaceOnUse">
      <stop offset="0" stop-color="#FFF6B0"/>
      <stop offset="1" stop-color="#FFB31A"/>
    </linearGradient>
    <filter id="softGlowLight" x="0" y="0" width="110" height="96" filterUnits="userSpaceOnUse" color-interpolation-filters="sRGB">
      <feGaussianBlur stdDeviation="4" result="blur"/>
      <feMerge>
        <feMergeNode in="blur"/>
        <feMergeNode in="SourceGraphic"/>
      </feMerge>
    </filter>
  </defs>

  <g filter="url(#softGlowLight)">
    <path d="M44 4L77 23V61L44 80L11 61V23L44 4Z" fill="url(#hexGradLight)" stroke="#FFC53D" stroke-width="2"/>
    <path d="M44 20L57 49H31L44 20Z" fill="url(#sparkGradLight)"/>
    <path d="M31 49L24 59L44 55L31 49Z" fill="#FFB31A"/>
    <path d="M57 49L64 59L44 55L57 49Z" fill="#FFB31A"/>
    <circle cx="44" cy="33" r="2.2" fill="#FFE89A"/>
    <circle cx="33" cy="38" r="1.7" fill="#FFE89A"/>
    <circle cx="55" cy="38" r="1.7" fill="#FFE89A"/>
  </g>

  <text x="98" y="63" font-family="Inter, Segoe UI, Arial, sans-serif" font-size="56" font-weight="800" letter-spacing="-1.2">
    <tspan fill="#1E2A6B">Event</tspan><tspan fill="#F59E0B">Hive</tspan>
  </text>
</svg>
